<svg width="1400" height="900" viewBox="0 0 1400 900" fill="none" xmlns="http://www.w3.org/2000/svg">
  <defs>
    <linearGradient id="bg2" x1="0" y1="0" x2="1400" y2="900" gradientUnits="userSpaceOnUse">
      <stop stop-color="#111827"/>
      <stop offset="1" stop-color="#1F2937"/>
    </linearGradient>
  </defs>
  <rect width="1400" height="900" fill="url(#bg2)"/>
  <rect x="80" y="70" width="1240" height="760" rx="28" fill="#0B1220" stroke="#334155" stroke-width="2"/>
  <rect x="120" y="120" width="360" height="620" rx="18" fill="#0F172A" stroke="#334155"/>
  <rect x="520" y="120" width="360" height="620" rx="18" fill="#0F172A" stroke="#334155"/>
  <rect x="920" y="120" width="360" height="620" rx="18" fill="#0F172A" stroke="#334155"/>
  <rect x="155" y="170" width="290" height="22" rx="11" fill="#A78BFA" fill-opacity="0.5"/>
  <rect x="555" y="170" width="290" height="22" rx="11" fill="#22D3EE" fill-opacity="0.5"/>
  <rect x="955" y="170" width="290" height="22" rx="11" fill="#F472B6" fill-opacity="0.5"/>
  <rect x="160" y="640" width="280" height="44" rx="12" fill="#8B5CF6"/>
  <rect x="560" y="640" width="280" height="44" rx="12" fill="#06B6D4"/>
  <rect x="960" y="640" width="280" height="44" rx="12" fill="#EC4899"/>
  <text x="700" y="790" text-anchor="middle" fill="#E2E8F0" font-size="34" font-family="Arial, sans-serif">EduFlow - "0@8DK</text>
</svg>
