<svg width="1400" height="900" viewBox="0 0 1400 900" fill="none" xmlns="http://www.w3.org/2000/svg">
  <defs>
    <linearGradient id="bg4" x1="0" y1="0" x2="1400" y2="900" gradientUnits="userSpaceOnUse">
      <stop stop-color="#111827"/>
      <stop offset="1" stop-color="#0F172A"/>
    </linearGradient>
  </defs>
  <rect width="1400" height="900" fill="url(#bg4)"/>
  <rect x="90" y="70" width="1220" height="760" rx="28" fill="#0A1020" stroke="#334155" stroke-width="2"/>
  <rect x="130" y="120" width="780" height="610" rx="18" fill="#111827" stroke="#334155"/>
  <rect x="940" y="120" width="330" height="610" rx="18" fill="#111827" stroke="#334155"/>
  <rect x="170" y="170" width="460" height="26" rx="13" fill="#22D3EE" fill-opacity="0.55"/>
  <rect x="170" y="215" width="390" height="14" rx="7" fill="#94A3B8" fill-opacity="0.45"/>
  <rect x="170" y="241" width="340" height="14" rx="7" fill="#94A3B8" fill-opacity="0.35"/>
  <rect x="170" y="660" width="240" height="44" rx="12" fill="#06B6D4"/>
  <rect x="970" y="170" width="270" height="90" rx="14" fill="#0F172A" stroke="#334155"/>
  <rect x="970" y="290" width="270" height="90" rx="14" fill="#0F172A" stroke="#334155"/>
  <rect x="970" y="410" width="270" height="90" rx="14" fill="#0F172A" stroke="#334155"/>
  <rect x="970" y="530" width="270" height="170" rx="14" fill="#0F172A" stroke="#334155"/>
  <text x="700" y="790" text-anchor="middle" fill="#E2E8F0" font-size="34" font-family="Arial, sans-serif">EduFlow - $8=0;L=K9 M:@0=</text>
</svg>
